<svg aria-hidden="true" style="position: absolute; width: 0; height: 0; overflow: hidden;" version="1.1" xmlns="http://www.w3.org/2000/svg" xmlns:xlink="http://www.w3.org/1999/xlink">
<defs>
<symbol id="Airbnb-Logo" viewBox="0 0 99 32">
<path fill="#555" style="fill: var(--color1, #555)" d="M28.469 22.448c-0.156-0.376-0.302-0.772-0.458-1.11l-0.72-1.612-0.029-0.029c-2.142-4.633-4.43-9.344-6.854-13.978l-0.097-0.193c-0.243-0.454-0.487-0.956-0.74-1.419-0.312-0.55-0.613-1.139-1.11-1.699-0.484-0.586-1.093-1.058-1.784-1.382s-1.445-0.492-2.208-0.492c-0.764 0-1.518 0.168-2.208 0.492s-1.299 0.796-1.783 1.382c-0.458 0.56-0.798 1.149-1.11 1.699-0.243 0.502-0.487 0.994-0.74 1.448l-0.097 0.193c-2.385 4.634-4.712 9.344-6.854 13.978l-0.058 0.058c-0.214 0.502-0.467 1.023-0.711 1.583-0.156 0.338-0.312 0.705-0.467 1.11-0.421 1.062-0.555 2.214-0.39 3.342s0.624 2.195 1.332 3.095c0.708 0.899 1.639 1.6 2.703 2.034s2.224 0.585 3.365 0.439c1.094-0.143 2.147-0.504 3.096-1.062 1.266-0.705 2.483-1.728 3.846-3.205 1.363 1.477 2.609 2.5 3.846 3.214 1.189 0.692 2.536 1.074 3.914 1.11 1.596 0.006 3.141-0.56 4.349-1.594s1.998-2.467 2.223-4.034c0.261-1.126 0.173-2.303-0.253-3.379v0.010zM14.487 24.050c-1.675-2.124-2.765-4.074-3.135-5.744-0.153-0.619-0.186-1.261-0.097-1.892 0.068-0.492 0.253-0.927 0.506-1.294 0.584-0.84 1.607-1.361 2.726-1.361 0.532-0.016 1.059 0.099 1.535 0.335s0.885 0.585 1.191 1.017c0.253 0.386 0.438 0.811 0.497 1.303 0.097 0.56 0.058 1.207-0.097 1.892-0.37 1.641-1.461 3.61-3.125 5.744zM26.891 25.479c-0.111 0.795-0.43 1.548-0.925 2.183s-1.15 1.13-1.899 1.437c-0.74 0.309-1.558 0.396-2.356 0.309-0.779-0.097-1.558-0.347-2.356-0.811-1.326-0.812-2.518-1.822-3.534-2.993 2.045-2.51 3.281-4.798 3.749-6.834 0.224-0.965 0.253-1.834 0.156-2.635-0.122-0.759-0.407-1.484-0.837-2.124-0.491-0.694-1.147-1.257-1.909-1.641s-1.608-0.576-2.463-0.56c-1.801 0-3.408 0.83-4.381 2.191-0.438 0.638-0.722 1.368-0.828 2.133-0.127 0.811-0.097 1.709 0.156 2.635 0.467 2.037 1.733 4.354 3.748 6.854-0.999 1.193-2.194 2.211-3.534 3.012-0.808 0.463-1.577 0.705-2.356 0.801-1.211 0.154-2.435-0.172-3.405-0.908s-1.608-1.821-1.775-3.021c-0.097-0.772-0.029-1.544 0.282-2.413 0.097-0.309 0.243-0.618 0.399-0.985 0.214-0.502 0.467-1.023 0.711-1.545l0.039-0.068c2.103-4.605 4.401-9.306 6.786-13.91l0.097-0.193c0.243-0.463 0.487-0.956 0.74-1.419 0.253-0.492 0.526-0.965 0.876-1.351 0.303-0.359 0.682-0.648 1.111-0.846s0.895-0.301 1.367-0.301c0.472 0 0.939 0.103 1.367 0.301s0.807 0.487 1.111 0.846c0.341 0.386 0.623 0.859 0.876 1.351 0.243 0.463 0.487 0.965 0.74 1.419l0.097 0.193c2.376 4.605 4.673 9.306 6.815 13.91l0.029 0.029c0.253 0.502 0.467 1.062 0.711 1.545 0.156 0.376 0.312 0.676 0.409 0.994 0.185 0.869 0.282 1.641 0.185 2.413zM40.444 23.838c-0.734 0.011-1.46-0.143-2.126-0.448s-1.254-0.756-1.72-1.318c-1.047-1.197-1.604-2.741-1.558-4.325-0.016-1.619 0.558-3.189 1.616-4.421 0.489-0.569 1.099-1.025 1.785-1.335s1.433-0.467 2.187-0.461c0.71-0.019 1.413 0.141 2.043 0.465s1.167 0.802 1.56 1.388l0.097-1.516h2.843v11.661h-2.853l-0.097-1.699c-0.405 0.626-0.965 1.139-1.626 1.491s-1.402 0.529-2.152 0.517zM41.184 21.058c0.565 0 1.061-0.154 1.529-0.434 0.428-0.309 0.779-0.714 1.052-1.207 0.243-0.492 0.37-1.081 0.37-1.738 0.038-0.57-0.074-1.14-0.325-1.655s-0.632-0.955-1.106-1.28c-0.456-0.282-0.982-0.431-1.519-0.431s-1.063 0.149-1.519 0.431c-0.428 0.309-0.779 0.714-1.052 1.207-0.257 0.543-0.384 1.138-0.37 1.738-0.038 0.57 0.074 1.14 0.325 1.655s0.632 0.955 1.106 1.28c0.458 0.28 0.954 0.434 1.509 0.434zM52.040 8.721c0 0.338-0.058 0.647-0.214 0.898-0.156 0.241-0.37 0.463-0.652 0.618s-0.584 0.212-0.896 0.212-0.623-0.058-0.906-0.212c-0.267-0.147-0.492-0.36-0.652-0.618-0.151-0.275-0.225-0.585-0.214-0.898 0-0.348 0.068-0.656 0.214-0.898 0.156-0.29 0.38-0.463 0.652-0.618 0.282-0.154 0.584-0.222 0.906-0.222 0.31-0.007 0.616 0.066 0.889 0.211s0.503 0.359 0.668 0.619c0.142 0.281 0.212 0.593 0.204 0.907zM48.73 23.49v-11.642h3.096v11.661h-3.106l0.010-0.019zM60.102 14.899v0.039c-0.146-0.068-0.341-0.097-0.487-0.125-0.195-0.039-0.351-0.039-0.535-0.039-0.867 0-1.519 0.251-1.947 0.772-0.467 0.531-0.682 1.274-0.682 2.23v5.724h-3.106v-11.661h2.853l0.097 1.767c0.312-0.618 0.682-1.081 1.207-1.429 0.523-0.338 1.139-0.506 1.762-0.483 0.224 0 0.438 0.019 0.623 0.058 0.097 0.029 0.156 0.029 0.214 0.058v3.089zM61.348 23.49v-16.43h3.096v6.275c0.438-0.56 0.935-0.994 1.558-1.332 0.986-0.48 2.107-0.616 3.181-0.386s2.039 0.811 2.739 1.651c1.050 1.199 1.606 2.747 1.558 4.334 0.016 1.619-0.558 3.189-1.616 4.421-0.49 0.569-1.099 1.025-1.785 1.335s-1.433 0.467-2.187 0.461c-0.71 0.019-1.413-0.141-2.043-0.465s-1.167-0.802-1.559-1.388l-0.097 1.516-2.843 0.029v-0.019zM67.336 21.058c0.555 0 1.052-0.154 1.519-0.434 0.428-0.309 0.779-0.714 1.051-1.207 0.253-0.492 0.37-1.081 0.37-1.738 0-0.647-0.117-1.236-0.37-1.728-0.256-0.475-0.615-0.887-1.051-1.207-0.456-0.282-0.982-0.431-1.519-0.431s-1.063 0.149-1.519 0.431c-0.438 0.309-0.779 0.714-1.061 1.207-0.257 0.543-0.384 1.138-0.37 1.738-0.038 0.57 0.074 1.14 0.325 1.655s0.632 0.955 1.106 1.28c0.458 0.28 0.954 0.434 1.519 0.434zM74.648 23.5v-11.661h2.853l0.097 1.515c0.359-0.581 0.867-1.056 1.473-1.377s1.287-0.475 1.974-0.447c0.785-0.013 1.556 0.203 2.218 0.622s1.184 1.022 1.501 1.734c0.341 0.734 0.526 1.641 0.526 2.655v6.989h-3.106v-6.583c0-0.811-0.185-1.448-0.555-1.921-0.37-0.463-0.876-0.714-1.519-0.714-0.467 0-0.876 0.097-1.237 0.309-0.341 0.222-0.623 0.502-0.837 0.898-0.217 0.4-0.324 0.849-0.312 1.303v6.68h-3.077zM86.838 23.5v-16.449h3.106v6.275c0.421-0.563 0.968-1.021 1.598-1.338s1.327-0.483 2.033-0.487c0.734-0.011 1.46 0.143 2.126 0.448s1.254 0.756 1.72 1.318c1.042 1.199 1.595 2.742 1.548 4.325 0.017 1.619-0.557 3.189-1.616 4.421-0.49 0.569-1.099 1.025-1.785 1.335s-1.433 0.468-2.187 0.461c-0.71 0.019-1.413-0.141-2.043-0.465s-1.167-0.802-1.559-1.388l-0.088 1.516-2.853 0.029zM92.855 21.058c0.565 0 1.061-0.154 1.519-0.434 0.438-0.309 0.779-0.714 1.061-1.207 0.243-0.492 0.37-1.081 0.37-1.738 0.038-0.57-0.074-1.14-0.325-1.655s-0.632-0.955-1.106-1.28c-0.456-0.282-0.982-0.431-1.519-0.431s-1.063 0.149-1.519 0.431c-0.428 0.309-0.779 0.714-1.051 1.207-0.272 0.538-0.399 1.136-0.37 1.738-0.038 0.57 0.074 1.14 0.325 1.655s0.632 0.955 1.106 1.28c0.458 0.28 0.925 0.434 1.509 0.434z"></path>
</symbol>
<symbol id="facebook" viewBox="0 0 32 32">
<path d="M17.775 10.862v-3.95c0-1.090 0.885-1.975 1.975-1.975h1.975v-4.937h-3.95c-3.273 0-5.925 2.652-5.925 5.925v4.937h-3.95v4.937h3.95v15.8h5.925v-15.8h3.95l1.975-4.937h-5.925z"></path>
</symbol>
<symbol id="icon-Frame-1" viewBox="0 0 32 32">
<path d="M21.563 14.667l-7.152-7.152 1.885-1.885 10.371 10.371-10.371 10.371-1.885-1.885 7.152-7.152h-16.229v-2.667h16.229z"></path>
</symbol>
<symbol id="Google-Logo" viewBox="0 0 94 32">
<path fill="#555" style="fill: var(--color1, #555)" d="M39.885 16.396c0 4.288-3.404 7.447-7.582 7.447s-7.582-3.16-7.582-7.447c0-4.318 3.404-7.447 7.582-7.447s7.582 3.129 7.582 7.447zM36.566 16.396c0-2.679-1.973-4.513-4.263-4.513s-4.263 1.833-4.263 4.513c0 2.652 1.973 4.513 4.263 4.513s4.263-1.863 4.263-4.513z"></path>
<path fill="#555" style="fill: var(--color1, #555)" d="M56.242 16.396c0 4.288-3.404 7.447-7.582 7.447s-7.582-3.16-7.582-7.447c0-4.315 3.404-7.447 7.582-7.447s7.582 3.129 7.582 7.447zM52.923 16.396c0-2.679-1.973-4.513-4.263-4.513s-4.263 1.833-4.263 4.513c0 2.652 1.973 4.513 4.263 4.513s4.263-1.863 4.263-4.513z"></path>
<path fill="#555" style="fill: var(--color1, #555)" d="M71.918 9.399v13.37c0 5.5-3.292 7.746-7.183 7.746-3.663 0-5.868-2.414-6.7-4.388l2.89-1.185c0.515 1.212 1.775 2.642 3.806 2.642 2.491 0 4.035-1.514 4.035-4.365v-1.071h-0.116c-0.743 0.903-2.174 1.692-3.98 1.692-3.779 0-7.241-3.243-7.241-7.417 0-4.204 3.462-7.474 7.241-7.474 1.803 0 3.234 0.789 3.98 1.665h0.116v-1.212h3.152v-0.003zM69.001 16.423c0-2.622-1.775-4.539-4.035-4.539-2.29 0-4.209 1.917-4.209 4.539 0 2.596 1.919 4.486 4.209 4.486 2.259 0 4.035-1.89 4.035-4.486z"></path>
<path fill="#555" style="fill: var(--color1, #555)" d="M77.115 1.563v21.825h-3.237v-21.825h3.237z"></path>
<path fill="#555" style="fill: var(--color1, #555)" d="M89.73 18.848l2.576 1.692c-0.831 1.212-2.835 3.301-6.297 3.301-4.294 0-7.5-3.27-7.5-7.447 0-4.429 3.234-7.447 7.129-7.447 3.922 0 5.841 3.076 6.468 4.738l0.344 0.846-10.104 4.123c0.774 1.494 1.977 2.256 3.663 2.256 1.69 0 2.862-0.819 3.721-2.062zM81.8 16.168l6.754-2.763c-0.371-0.93-1.489-1.578-2.805-1.578-1.687 0-4.035 1.467-3.95 4.342z"></path>
<path fill="#555" style="fill: var(--color1, #555)" d="M12.467 14.459v-3.16h10.806c0.106 0.551 0.16 1.202 0.16 1.907 0 2.37-0.658 5.302-2.777 7.39-2.062 2.115-4.696 3.243-8.185 3.243-6.468 0-11.907-5.191-11.907-11.564s5.439-11.564 11.907-11.564c3.578 0 6.127 1.383 8.042 3.186l-2.263 2.229c-1.373-1.269-3.234-2.256-5.783-2.256-4.723 0-8.417 3.75-8.417 8.404s3.694 8.404 8.417 8.404c3.063 0 4.808-1.212 5.926-2.313 0.906-0.893 1.503-2.169 1.738-3.912l-7.664 0.003z"></path>
</symbol>
<symbol id="Hubspot-Logo" viewBox="0 0 109 32">
<path fill="#555" style="fill: var(--color1, #555)" d="M11.9 5.729v8.663h-7.895v-8.664h-3.748v20.681h3.748v-8.382h7.895v8.382h3.748v-20.681h-3.748z"></path>
<path fill="#555" style="fill: var(--color1, #555)" d="M27.645 19.724c0 0.829-0.327 1.624-0.908 2.21s-1.37 0.915-2.193 0.915c-0.822 0-1.611-0.329-2.193-0.915s-0.908-1.381-0.908-2.21v-8.858h-3.556v8.858c0 1.777 0.701 3.482 1.948 4.739s2.939 1.963 4.702 1.963 3.455-0.706 4.702-1.963c1.247-1.257 1.948-2.961 1.948-4.739v-8.858h-3.543v8.858z"></path>
<path fill="#555" style="fill: var(--color1, #555)" d="M53.988 11.779c0-1.816 1.192-2.391 2.498-2.391 1.052 0 2.443 0.807 3.352 1.786l2.329-2.765c-1.163-1.584-3.521-2.68-5.451-2.68-3.857 0-6.647 2.276-6.647 6.050 0 7.002 8.492 4.781 8.492 8.699 0 1.209-1.164 2.276-2.498 2.276-2.103 0-2.784-1.036-3.75-2.132l-2.584 2.708c1.653 2.045 3.692 3.083 6.134 3.083 3.664 0 6.612-2.304 6.612-5.906 0-7.773-8.492-5.358-8.492-8.728z"></path>
<path fill="#555" style="fill: var(--color1, #555)" d="M106.525 23.105c-2.101 0-2.698-0.916-2.698-2.319v-6.209h3.265v-3.146h-3.265v-4.151l-3.605 1.631v12.648c0 3.235 2.215 4.866 5.252 4.866 0.476 0.009 0.953-0.030 1.422-0.115l0.88-3.263c-0.397 0.028-0.852 0.055-1.251 0.055z"></path>
<path fill="#555" style="fill: var(--color1, #555)" d="M41.178 10.971c-1.761 0-2.99 0.515-4.178 1.69v-6.807h-3.561v12.617c0 4.723 3.388 7.958 7.196 7.958 4.224 0 7.939-3.293 7.939-7.727 0-4.379-3.42-7.729-7.396-7.729v-0.002zM41.156 22.817c-0.799 0-1.58-0.239-2.245-0.686s-1.182-1.083-1.488-1.827c-0.306-0.744-0.386-1.563-0.23-2.352s0.541-1.515 1.106-2.085c0.565-0.569 1.285-0.957 2.069-1.114s1.596-0.076 2.334 0.232c0.738 0.308 1.369 0.83 1.813 1.5s0.681 1.457 0.681 2.262c0 1.080-0.426 2.115-1.184 2.879s-1.785 1.193-2.857 1.193z"></path>
<path fill="#555" style="fill: var(--color1, #555)" d="M79.845 18.511c0-4.442-3.708-7.727-7.939-7.727-3.807 0-7.196 3.235-7.196 7.958v12.624h3.561v-6.816c1.186 1.173 2.417 1.69 4.176 1.69 3.976 0 7.396-3.348 7.396-7.729h0.002zM76.473 18.467c0 0.805-0.237 1.593-0.681 2.262s-1.075 1.191-1.813 1.5-1.551 0.389-2.334 0.232c-0.784-0.157-1.504-0.545-2.069-1.114s-0.95-1.295-1.106-2.085-0.076-1.609 0.23-2.352c0.306-0.744 0.824-1.38 1.488-1.827s1.446-0.686 2.245-0.686c1.072 0 2.099 0.429 2.857 1.193s1.183 1.799 1.183 2.879z"></path>
<path fill="#555" style="fill: var(--color1, #555)" d="M91.35 10.61v-3.605c0.473-0.223 0.873-0.576 1.154-1.019s0.432-0.957 0.434-1.483v-0.083c0-0.736-0.29-1.442-0.807-1.963s-1.217-0.813-1.948-0.813h-0.083c-0.731 0-1.431 0.292-1.948 0.813s-0.807 1.227-0.807 1.963v0.083c0.002 0.526 0.153 1.040 0.434 1.483s0.682 0.796 1.154 1.019v3.605c-1.359 0.21-2.639 0.777-3.71 1.645l-9.811-7.701c0.069-0.254 0.106-0.516 0.11-0.779 0.001-0.619-0.18-1.224-0.52-1.739s-0.824-0.917-1.391-1.154c-0.567-0.238-1.191-0.301-1.793-0.181s-1.156 0.417-1.591 0.854c-0.435 0.437-0.731 0.994-0.852 1.6s-0.060 1.236 0.174 1.808c0.234 0.572 0.631 1.061 1.141 1.405s1.11 0.529 1.724 0.529c0.537-0.002 1.064-0.147 1.528-0.418l9.662 7.575c-0.868 1.321-1.321 2.876-1.3 4.46s0.516 3.126 1.419 4.423l-2.939 2.961c-0.238-0.076-0.485-0.117-0.735-0.12-0.504 0-0.997 0.151-1.415 0.434s-0.745 0.684-0.938 1.153c-0.193 0.469-0.243 0.986-0.145 1.484s0.341 0.956 0.698 1.315c0.356 0.359 0.81 0.604 1.305 0.703s1.007 0.048 1.472-0.146c0.466-0.194 0.864-0.523 1.144-0.945s0.43-0.919 0.43-1.427c-0.003-0.251-0.043-0.501-0.119-0.74l2.907-2.93c0.948 0.735 2.050 1.242 3.223 1.481s2.384 0.206 3.541-0.099c1.157-0.305 2.23-0.873 3.136-1.66s1.621-1.773 2.090-2.882 0.681-2.311 0.618-3.515c-0.063-1.204-0.398-2.377-0.98-3.43s-1.396-1.958-2.379-2.645c-0.983-0.687-2.109-1.139-3.291-1.32zM90.145 22.466c-0.795-0.001-1.572-0.239-2.233-0.685s-1.176-1.079-1.48-1.82-0.383-1.555-0.228-2.341c0.156-0.786 0.539-1.508 1.101-2.074s1.279-0.952 2.059-1.109 1.588-0.076 2.323 0.231c0.735 0.307 1.363 0.826 1.805 1.492s0.678 1.45 0.679 2.251c0 1.075-0.424 2.106-1.178 2.866s-1.777 1.187-2.844 1.187z"></path>
</symbol>
<symbol id="instagram" viewBox="0 0 32 32">
<path d="M31.97 9.29c-0.074-1.679-0.346-2.833-0.735-3.833-0.401-1.062-1.019-2.012-1.827-2.802-0.79-0.802-1.747-1.426-2.796-1.821-1.006-0.389-2.154-0.66-3.833-0.734-1.692-0.080-2.229-0.099-6.519-0.099s-4.827 0.019-6.512 0.093c-1.679 0.074-2.833 0.346-3.833 0.734-1.062 0.401-2.012 1.019-2.803 1.827-0.802 0.79-1.426 1.747-1.821 2.796-0.389 1.006-0.66 2.154-0.734 3.833-0.080 1.692-0.099 2.229-0.099 6.519s0.019 4.827 0.093 6.512c0.074 1.679 0.346 2.833 0.735 3.834 0.401 1.062 1.025 2.012 1.827 2.802 0.79 0.802 1.747 1.426 2.796 1.821 1.006 0.389 2.154 0.661 3.833 0.735 1.685 0.074 2.222 0.093 6.512 0.093s4.827-0.018 6.512-0.093c1.679-0.074 2.833-0.345 3.833-0.735 2.124-0.821 3.803-2.5 4.623-4.623 0.389-1.006 0.66-2.155 0.735-3.834 0.074-1.685 0.093-2.222 0.093-6.512s-0.006-4.827-0.080-6.512zM29.124 22.192c-0.068 1.543-0.327 2.377-0.543 2.932-0.531 1.377-1.624 2.469-3 3-0.556 0.216-1.395 0.475-2.932 0.543-1.667 0.074-2.167 0.093-6.383 0.093s-4.722-0.018-6.383-0.093c-1.543-0.068-2.377-0.327-2.932-0.543-0.685-0.253-1.309-0.655-1.815-1.179-0.525-0.512-0.926-1.13-1.179-1.815-0.216-0.556-0.475-1.395-0.543-2.932-0.074-1.667-0.093-2.167-0.093-6.383s0.018-4.722 0.093-6.383c0.068-1.543 0.327-2.377 0.543-2.932 0.253-0.685 0.654-1.309 1.185-1.815 0.512-0.525 1.129-0.926 1.815-1.179 0.556-0.216 1.395-0.475 2.932-0.543 1.667-0.074 2.167-0.093 6.383-0.093 4.222 0 4.722 0.019 6.383 0.093 1.543 0.068 2.377 0.327 2.932 0.543 0.685 0.253 1.309 0.654 1.815 1.179 0.525 0.512 0.926 1.13 1.179 1.815 0.216 0.556 0.475 1.395 0.543 2.932 0.074 1.667 0.093 2.167 0.093 6.383s-0.018 4.71-0.093 6.377z"></path>
<path d="M16.259 7.685c-4.481 0-8.117 3.636-8.117 8.117s3.636 8.117 8.117 8.117c4.482 0 8.117-3.636 8.117-8.117s-3.636-8.117-8.117-8.117zM16.259 21.068c-2.907 0-5.266-2.358-5.266-5.266s2.358-5.266 5.266-5.266c2.908 0 5.266 2.358 5.266 5.266s-2.358 5.266-5.266 5.266z"></path>
<path d="M26.593 7.364c0 1.047-0.849 1.895-1.895 1.895s-1.895-0.849-1.895-1.895c0-1.047 0.849-1.895 1.895-1.895s1.895 0.848 1.895 1.895z"></path>
</symbol>
<symbol id="Microsoft-Logo" viewBox="0 0 146 32">
<path fill="#555" style="fill: var(--color1, #555)" d="M51.749 18.342l-0.862 2.436h-0.072c-0.144-0.549-0.407-1.385-0.838-2.388l-4.62-11.583h-4.525v18.461h2.992v-11.392c0-0.716 0-1.529-0.024-2.532-0.024-0.502-0.072-0.884-0.096-1.17h0.072c0.144 0.716 0.311 1.242 0.431 1.576l5.554 13.47h2.107l5.506-13.589c0.12-0.31 0.239-0.931 0.359-1.457h0.072c-0.072 1.361-0.12 2.579-0.144 3.32v11.702h3.184v-18.437h-4.357l-4.74 11.583zM63.862 11.965h3.112v13.231h-3.112v-13.231zM65.442 6.377c-0.527 0-0.958 0.191-1.317 0.525s-0.551 0.764-0.551 1.29c0 0.502 0.191 0.931 0.551 1.266s0.79 0.502 1.317 0.502c0.527 0 0.981-0.191 1.317-0.502 0.359-0.334 0.551-0.764 0.551-1.266s-0.192-0.931-0.551-1.29c-0.311-0.334-0.766-0.525-1.317-0.525zM78.011 11.846c-0.575-0.119-1.173-0.191-1.748-0.191-1.412 0-2.705 0.31-3.782 0.931s-1.939 1.481-2.49 2.556c-0.575 1.099-0.862 2.364-0.862 3.821 0 1.266 0.287 2.388 0.838 3.415 0.551 1.003 1.317 1.815 2.346 2.364 0.981 0.549 2.131 0.836 3.423 0.836 1.484 0 2.753-0.31 3.758-0.884l0.024-0.024v-2.866l-0.12 0.096c-0.455 0.334-0.982 0.621-1.508 0.788-0.551 0.191-1.053 0.287-1.484 0.287-1.245 0-2.226-0.358-2.921-1.146-0.718-0.764-1.077-1.815-1.077-3.129 0-1.361 0.359-2.436 1.101-3.224s1.724-1.194 2.921-1.194c1.005 0 2.035 0.334 2.969 1.003l0.12 0.096v-3.033l-0.024-0.024c-0.407-0.167-0.862-0.358-1.484-0.478zM88.28 11.75c-0.766 0-1.484 0.239-2.107 0.74-0.527 0.43-0.886 1.051-1.197 1.791h-0.024v-2.317h-3.112v13.231h3.112v-6.759c0-1.146 0.239-2.102 0.766-2.794 0.527-0.716 1.197-1.075 2.011-1.075 0.287 0 0.575 0.072 0.934 0.119 0.335 0.096 0.574 0.191 0.742 0.311l0.12 0.096v-3.105l-0.072-0.024c-0.215-0.143-0.646-0.215-1.173-0.215zM96.755 11.679c-2.178 0-3.926 0.645-5.147 1.911-1.245 1.266-1.843 3.009-1.843 5.206 0 2.054 0.622 3.726 1.819 4.944 1.197 1.194 2.825 1.815 4.86 1.815 2.131 0 3.83-0.645 5.051-1.934 1.245-1.29 1.843-3.009 1.843-5.135 0-2.102-0.575-3.773-1.748-4.991-1.125-1.218-2.777-1.815-4.836-1.815zM99.245 21.853c-0.575 0.74-1.484 1.099-2.609 1.099s-2.035-0.358-2.681-1.146c-0.646-0.74-0.958-1.815-0.958-3.176 0-1.409 0.335-2.484 0.958-3.248 0.646-0.764 1.532-1.146 2.657-1.146 1.101 0 1.963 0.358 2.585 1.099s0.957 1.815 0.957 3.224c-0.048 1.433-0.311 2.555-0.91 3.296zM110.281 17.458c-0.982-0.406-1.604-0.716-1.891-0.979-0.239-0.239-0.359-0.573-0.359-1.003 0-0.358 0.144-0.716 0.503-0.955s0.766-0.358 1.365-0.358c0.527 0 1.077 0.096 1.604 0.239s1.005 0.358 1.388 0.645l0.12 0.096v-2.914l-0.072-0.024c-0.359-0.143-0.838-0.287-1.412-0.406-0.575-0.096-1.101-0.143-1.532-0.143-1.484 0-2.705 0.358-3.663 1.146-0.958 0.74-1.412 1.743-1.412 2.914 0 0.621 0.096 1.17 0.311 1.624s0.527 0.884 0.957 1.242c0.431 0.334 1.053 0.716 1.915 1.075 0.718 0.311 1.269 0.549 1.604 0.74s0.551 0.406 0.718 0.573c0.12 0.191 0.192 0.43 0.192 0.74 0 0.884-0.67 1.314-2.035 1.314-0.527 0-1.077-0.096-1.724-0.311s-1.245-0.525-1.748-0.884l-0.12-0.096v3.033l0.072 0.024c0.455 0.215 1.005 0.358 1.676 0.525 0.67 0.119 1.269 0.215 1.795 0.215 1.604 0 2.921-0.358 3.854-1.146 0.957-0.764 1.46-1.743 1.46-3.009 0-0.884-0.239-1.672-0.766-2.269-0.694-0.573-1.556-1.17-2.801-1.648zM122.059 11.679c-2.178 0-3.926 0.645-5.147 1.911s-1.843 3.009-1.843 5.206c0 2.054 0.622 3.726 1.819 4.944 1.197 1.194 2.824 1.815 4.859 1.815 2.131 0 3.831-0.645 5.051-1.934 1.246-1.29 1.844-3.009 1.844-5.135 0-2.102-0.575-3.773-1.748-4.991-1.125-1.218-2.777-1.815-4.836-1.815zM124.524 21.853c-0.574 0.74-1.484 1.099-2.609 1.099-1.15 0-2.035-0.358-2.682-1.146-0.646-0.74-0.957-1.815-0.957-3.176 0-1.409 0.335-2.484 0.957-3.248 0.647-0.764 1.532-1.146 2.658-1.146 1.076 0 1.963 0.358 2.585 1.099s0.958 1.815 0.958 3.224c0 1.433-0.312 2.555-0.91 3.296zM145.28 14.521v-2.556h-3.136v-3.917l-0.096 0.024-3.040 0.908v2.985h-4.692v-1.672c0-0.764 0.191-1.361 0.526-1.743s0.838-0.573 1.46-0.573c0.431 0 0.885 0.096 1.389 0.31l0.12 0.072v-2.699l-0.072-0.024c-0.431-0.143-1.005-0.239-1.747-0.239-0.934 0-1.748 0.215-2.49 0.573-0.742 0.406-1.293 0.955-1.7 1.696-0.408 0.716-0.622 1.529-0.622 2.46v1.839h-2.178v2.532h2.178v10.699h3.136v-10.675h4.692v6.807c0 2.794 1.317 4.203 3.949 4.203 0.431 0 0.887-0.072 1.317-0.143 0.455-0.096 0.791-0.215 0.981-0.31l0.025-0.024v-2.555l-0.12 0.096c-0.192 0.119-0.359 0.215-0.647 0.287-0.239 0.072-0.455 0.096-0.622 0.096-0.622 0-1.054-0.143-1.364-0.502-0.288-0.334-0.431-0.884-0.431-1.696v-6.257h3.185z"></path>
<path fill="#555" style="fill: var(--color1, #555)" d="M0.711 0.596h14.675v14.64h-14.675v-14.64z"></path>
<path fill="#555" style="fill: var(--color1, #555)" d="M16.918 0.596h14.675v14.64h-14.675v-14.64z"></path>
<path fill="#555" style="fill: var(--color1, #555)" d="M0.711 16.765h14.675v14.64h-14.675v-14.64z"></path>
<path fill="#555" style="fill: var(--color1, #555)" d="M16.918 16.765h14.675v14.64h-14.675v-14.64z"></path>
</symbol>
<symbol id="twitter" viewBox="0 0 34 32">
<path d="M33.030 6.002c-1.175 0.515-2.427 0.857-3.733 1.023 1.343-0.802 2.368-2.062 2.85-3.581-1.252 0.747-2.635 1.274-4.108 1.568-1.189-1.266-2.883-2.050-4.732-2.050-3.587 0-6.474 2.911-6.474 6.48 0 0.513 0.043 1.007 0.15 1.477-5.386-0.263-10.151-2.844-13.353-6.776-0.559 0.97-0.887 2.080-0.887 3.274 0 2.244 1.155 4.232 2.878 5.384-1.041-0.020-2.062-0.322-2.927-0.798 0 0.020 0 0.045 0 0.071 0 3.148 2.245 5.763 5.19 6.365-0.527 0.144-1.102 0.213-1.698 0.213-0.415 0-0.833-0.024-1.226-0.111 0.839 2.565 3.221 4.452 6.053 4.513-2.204 1.724-5.003 2.763-8.032 2.763-0.531 0-1.041-0.024-1.55-0.089 2.87 1.851 6.27 2.907 9.938 2.907 11.921 0 18.438-9.875 18.438-18.434 0-0.286-0.010-0.563-0.024-0.837 1.286-0.912 2.366-2.052 3.247-3.363z"></path>
</symbol>
<symbol id="Walmart-Logo" viewBox="0 0 133 32">
<path fill="#555" style="fill: var(--color1, #555)" d="M47.765 11.554v1.746h0.053c0.628-0.935 1.672-2.036 3.984-2.036 1.799 0 3.179 0.915 3.77 2.298h0.053c0.505-0.699 1.084-1.228 1.733-1.603 0.768-0.444 1.622-0.699 2.698-0.699 2.435 0 4.592 1.584 4.592 5.578v7.575h-3.713v-7.046c0-2.024-0.731-3.195-2.251-3.195-1.113 0-1.922 0.703-2.23 1.568-0.107 0.297-0.156 0.703-0.156 1.043v7.633h-3.713v-7.335c0-1.719-0.702-2.913-2.201-2.913-1.199 0-1.951 0.888-2.259 1.649-0.131 0.324-0.172 0.699-0.172 1.051v7.544h-3.717v-12.859h3.528zM83.813 11.554v2.426h0.103c0.682-1.854 2.3-2.716 3.721-2.716 0.357 0 0.555 0.027 0.842 0.081v3.368c-0.341-0.046-0.657-0.093-1.101-0.093-1.61 0-2.731 0.881-3.015 2.26-0.062 0.286-0.082 0.595-0.082 0.95v6.586h-3.811v-12.863h3.343zM93.654 7.294v4.048h3.22v3.276h-3.22v4.832c0 1.564 0.423 2.322 1.68 2.322 0.591 0 1.027-0.070 1.405-0.158l0.049 2.715c-0.505 0.178-1.581 0.371-2.674 0.371-1.285 0-2.357-0.421-3.010-1.074-0.748-0.745-1.093-1.966-1.093-3.704v-12.627h3.643zM41.65 24.414h-3.696v-17.12h3.696v17.12zM31.792 19.821c0 0.236-0.020 0.483-0.090 0.695-0.288 0.892-1.269 1.646-2.493 1.646-1.023 0-1.836-0.545-1.836-1.7 0-1.765 2.070-2.256 4.423-2.244v1.603h-0.004zM35.485 16.742c0-2.916-1.323-5.477-5.795-5.477-2.296 0-4.119 0.607-5.113 1.147l0.727 2.341c0.908-0.541 2.357-0.985 3.729-0.985 2.271-0.004 2.641 1.209 2.641 1.986v0.185c-4.949-0.008-8.075 1.603-8.075 4.887 0 2.005 1.589 3.882 4.358 3.882 1.705 0 3.126-0.637 3.98-1.661h0.082c0 0 0.567 2.221 3.68 1.371-0.164-0.927-0.218-1.912-0.218-3.098v-4.577h0.004zM5.030 7.294c0.382 1.812 1.466 7.073 1.466 7.073 0.456 2.163 0.875 4.431 1.191 6.223h0.058c0.308-1.904 0.793-3.708 1.31-5.941l1.828-7.355h4.045l1.709 7.544c0.448 2.098 0.805 3.716 1.088 5.667h0.053c0.308-1.97 0.711-3.654 1.15-5.81l1.643-7.401h3.881l-4.809 17.12c-3.064 0.63-4.239-0.529-4.658-2.368-0.419-1.843-1.24-5.346-1.24-5.346-0.423-1.92-0.752-3.272-0.982-5.242h-0.057c-0.329 1.951-0.674 3.318-1.183 5.238l-2.017 7.722c-3.13 0.587-4.214-0.282-4.814-2.642-0.518-2.020-3.746-14.478-3.746-14.478l4.082-0.004zM74.309 19.821c0 0.236-0.021 0.483-0.090 0.695-0.288 0.892-1.269 1.646-2.493 1.646-1.023 0-1.836-0.545-1.836-1.7 0-1.765 2.070-2.256 4.423-2.244v1.603h-0.004zM78.002 16.742c0-2.916-1.322-5.477-5.795-5.477-2.296 0-4.119 0.607-5.113 1.147l0.727 2.341c0.908-0.541 2.358-0.985 3.729-0.985 2.267-0.004 2.641 1.209 2.641 1.986v0.185c-4.945-0.008-8.071 1.603-8.071 4.887 0 2.005 1.593 3.882 4.358 3.882 1.7 0 3.125-0.637 3.976-1.661h0.086c0 0 0.567 2.221 3.68 1.371-0.164-0.927-0.218-1.912-0.218-3.098v-4.577z"></path>
<path fill="#555" style="fill: var(--color1, #555)" d="M111.858 18.517c0.364 0.625 0.34 1.323-0.049 1.642l-6.722 4.643c-0.7 0.399-1.748-0.085-2.342-1.097-0.598-1.017-0.491-2.15 0.209-2.549l7.443-3.413c0.467-0.177 1.097 0.149 1.462 0.775zM120.705 18.517c0.369-0.625 0.994-0.948 1.461-0.779l7.447 3.413c0.7 0.399 0.802 1.533 0.209 2.549-0.597 1.012-1.65 1.492-2.345 1.097l-6.722-4.643c-0.385-0.315-0.414-1.016-0.049-1.638zM116.279 21.034c0.733 0 1.335 0.371 1.417 0.859l0.725 8.059c0 0.799-0.946 1.452-2.137 1.452-1.187 0-2.137-0.653-2.137-1.452l0.721-8.059c0.082-0.488 0.684-0.859 1.412-0.859zM120.754 11.846l6.722-4.647c0.696-0.399 1.748 0.081 2.345 1.097 0.594 1.016 0.492 2.15-0.209 2.549l-7.447 3.417c-0.467 0.169-1.097-0.153-1.461-0.779-0.365-0.625-0.337-1.323 0.049-1.638zM110.396 14.262l-7.443-3.416c-0.696-0.399-0.802-1.533-0.209-2.549s1.646-1.496 2.342-1.097l6.722 4.647c0.389 0.311 0.413 1.012 0.049 1.638s-0.995 0.948-1.462 0.779zM114.867 10.107l-0.721-8.059c0-0.799 0.946-1.452 2.137-1.452s2.137 0.653 2.137 1.452l-0.725 8.059c-0.082 0.484-0.684 0.859-1.417 0.859-0.729 0-1.331-0.375-1.412-0.859zM131.64 24.77v-0.202h0.184c0.062 0 0.103 0.040 0.103 0.101 0 0.056-0.041 0.101-0.103 0.101h-0.184zM131.488 25.137c0 0.020 0.017 0.040 0.041 0.040h0.077c0.021 0 0.041-0.020 0.041-0.040v-0.23h0.127l0.102 0.242c0.008 0.016 0.021 0.028 0.037 0.028h0.095c0.028 0 0.049-0.028 0.037-0.057-0.037-0.073-0.073-0.149-0.11-0.226 0.062-0.020 0.155-0.081 0.155-0.226 0-0.153-0.127-0.242-0.254-0.242h-0.307c-0.021 0-0.041 0.020-0.041 0.040v0.67zM131.156 24.802c0-0.327 0.27-0.593 0.602-0.593s0.602 0.262 0.602 0.593c0 0.327-0.267 0.593-0.602 0.593s-0.602-0.266-0.602-0.593zM131.014 24.802c0 0.403 0.331 0.734 0.744 0.734 0.41 0 0.745-0.331 0.745-0.734s-0.335-0.734-0.745-0.734c-0.414 0-0.744 0.331-0.744 0.734z"></path>
</symbol>
<symbol id="Dudeshape" viewBox="0 0 171 32">
<path d="M0.224 24l4.768-22.4h7.328c1.493 0 2.88 0.256 4.16 0.768 1.28 0.491 2.368 1.173 3.264 2.048 0.917 0.875 1.632 1.931 2.144 3.168 0.533 1.216 0.8 2.549 0.8 4 0 1.685-0.352 3.285-1.056 4.8-0.683 1.493-1.611 2.805-2.784 3.936-1.152 1.131-2.517 2.027-4.096 2.688s-3.243 0.992-4.992 0.992h-9.536zM11.808 5.728h-3.136l-3.040 14.144h4.512c1.067 0 2.080-0.203 3.040-0.608 0.96-0.427 1.792-0.992 2.496-1.696 0.704-0.725 1.259-1.568 1.664-2.528 0.405-0.981 0.608-2.027 0.608-3.136 0-1.792-0.576-3.264-1.728-4.416-1.152-1.173-2.624-1.76-4.416-1.76zM30.803 7.328l-2.016 9.536c-0.235 1.088-0.096 1.973 0.416 2.656 0.533 0.683 1.333 1.024 2.4 1.024 0.661 0 1.28-0.128 1.856-0.384 0.597-0.277 1.141-0.651 1.632-1.12l2.464-11.712h4.32l-3.552 16.672h-4.288l0.256-1.184c-0.661 0.469-1.376 0.832-2.144 1.088-0.768 0.235-1.568 0.352-2.4 0.352-0.981 0-1.856-0.171-2.624-0.512-0.768-0.363-1.387-0.853-1.856-1.472s-0.789-1.355-0.96-2.208c-0.149-0.853-0.117-1.781 0.096-2.784l2.112-9.952h4.288zM53.909 24l0.192-0.832c-0.597 0.341-1.227 0.608-1.888 0.8-0.661 0.171-1.333 0.256-2.016 0.256-1.045 0-2.027-0.192-2.944-0.576-0.896-0.405-1.675-0.949-2.336-1.632s-1.184-1.493-1.568-2.432c-0.384-0.96-0.576-1.984-0.576-3.072 0-1.301 0.245-2.517 0.736-3.648 0.491-1.152 1.152-2.155 1.984-3.008s1.813-1.525 2.944-2.016c1.131-0.491 2.336-0.736 3.616-0.736 0.981 0 1.899 0.149 2.752 0.448s1.611 0.725 2.272 1.28l1.536-7.232 4.512-0.96-4.96 23.36h-4.256zM46.997 16.128c0 1.259 0.416 2.304 1.248 3.136s1.867 1.248 3.104 1.248c0.661 0 1.291-0.107 1.888-0.32 0.597-0.235 1.141-0.555 1.632-0.96l1.408-6.624c-0.448-0.533-1.035-0.96-1.76-1.28-0.704-0.32-1.472-0.48-2.304-0.48-1.451 0-2.688 0.512-3.712 1.536-1.003 1.024-1.504 2.272-1.504 3.744zM77.305 22.272c-1.024 0.725-2.037 1.259-3.040 1.6-1.003 0.32-2.101 0.48-3.296 0.48-1.216 0-2.347-0.192-3.392-0.576-1.045-0.405-1.941-0.96-2.688-1.664s-1.333-1.547-1.76-2.528c-0.405-0.981-0.608-2.048-0.608-3.2 0-1.259 0.235-2.453 0.704-3.584 0.491-1.152 1.141-2.144 1.952-2.976 0.811-0.853 1.76-1.525 2.848-2.016 1.109-0.491 2.283-0.736 3.52-0.736 1.088 0 2.101 0.203 3.040 0.608s1.739 0.96 2.4 1.664c0.661 0.704 1.173 1.557 1.536 2.56 0.384 0.981 0.576 2.048 0.576 3.2 0 0.235-0.011 0.491-0.032 0.768-0.021 0.256-0.064 0.672-0.128 1.248h-12.16c0.192 1.067 0.693 1.931 1.504 2.592 0.832 0.661 1.835 0.992 3.008 0.992 0.704 0 1.365-0.107 1.984-0.32s1.163-0.512 1.632-0.896l2.4 2.784zM71.321 10.72c-0.96 0-1.824 0.309-2.592 0.928-0.768 0.597-1.323 1.387-1.664 2.368h8c-0.192-0.981-0.629-1.771-1.312-2.368-0.661-0.619-1.472-0.928-2.432-0.928zM79.486 21.504l2.464-2.784c0.896 0.768 1.792 1.344 2.688 1.728 0.917 0.384 1.845 0.576 2.784 0.576 0.875 0 1.579-0.171 2.112-0.512 0.555-0.341 0.832-0.779 0.832-1.312 0-0.363-0.16-0.661-0.48-0.896-0.299-0.256-0.747-0.459-1.344-0.608l-3.072-0.672c-1.365-0.299-2.411-0.832-3.136-1.6-0.725-0.789-1.088-1.76-1.088-2.912 0-1.664 0.597-2.987 1.792-3.968s2.805-1.472 4.832-1.472c1.344 0 2.635 0.224 3.872 0.672 1.237 0.427 2.347 1.056 3.328 1.888l-2.4 2.656c-0.853-0.64-1.717-1.12-2.592-1.44-0.853-0.341-1.685-0.512-2.496-0.512-0.768 0-1.376 0.149-1.824 0.448s-0.672 0.704-0.672 1.216c0 0.405 0.149 0.736 0.448 0.992 0.299 0.235 0.811 0.427 1.536 0.576l3.040 0.672c1.408 0.299 2.485 0.843 3.232 1.632 0.747 0.768 1.12 1.707 1.12 2.816 0 0.811-0.181 1.568-0.544 2.272-0.363 0.683-0.864 1.28-1.504 1.792-0.619 0.491-1.365 0.885-2.24 1.184-0.853 0.277-1.781 0.416-2.784 0.416-1.536 0-3.008-0.256-4.416-0.768s-2.571-1.205-3.488-2.080zM95.561 24l4.768-22.4 4.48-0.96-1.664 7.872c0.661-0.469 1.376-0.821 2.144-1.056 0.768-0.256 1.557-0.384 2.368-0.384 0.981 0 1.856 0.181 2.624 0.544 0.768 0.341 1.387 0.821 1.856 1.44s0.789 1.355 0.96 2.208c0.171 0.853 0.149 1.781-0.064 2.784l-2.112 9.952h-4.32l2.048-9.536c0.213-1.088 0.053-1.973-0.48-2.656-0.512-0.683-1.291-1.024-2.336-1.024-0.661 0-1.291 0.128-1.888 0.384s-1.131 0.629-1.6 1.12l-2.496 11.712h-4.288zM120.202 24.192c-1.728 0-3.104-0.416-4.128-1.248-1.024-0.853-1.536-1.984-1.536-3.392 0-1.685 0.629-3.019 1.888-4 1.259-1.003 2.965-1.504 5.12-1.504 0.789 0 1.568 0.075 2.336 0.224 0.789 0.149 1.525 0.352 2.208 0.608l0.192-0.832c0.235-1.131 0.064-1.973-0.512-2.528-0.576-0.576-1.536-0.864-2.88-0.864-0.597 0-1.28 0.085-2.048 0.256-0.747 0.171-1.632 0.448-2.656 0.832l-1.056-3.296c1.216-0.469 2.379-0.821 3.488-1.056 1.131-0.235 2.197-0.352 3.2-0.352 2.539 0 4.395 0.619 5.568 1.856 1.195 1.237 1.568 2.933 1.12 5.088l-2.112 10.016h-4.224l0.224-1.024c-0.683 0.405-1.365 0.715-2.048 0.928-0.683 0.192-1.397 0.288-2.144 0.288zM118.602 19.168c0 0.597 0.267 1.067 0.8 1.408 0.555 0.341 1.312 0.512 2.272 0.512 0.597 0 1.173-0.075 1.728-0.224s1.077-0.384 1.568-0.704l0.544-2.496c-0.533-0.235-1.12-0.416-1.76-0.544-0.619-0.128-1.248-0.192-1.888-0.192-1.003 0-1.803 0.203-2.4 0.608-0.576 0.405-0.864 0.949-0.864 1.632zM130.183 30.688l4.961-23.36h4.256l-0.16 0.832c0.597-0.341 1.216-0.597 1.856-0.768 0.661-0.192 1.333-0.288 2.016-0.288 1.045 0 2.027 0.203 2.944 0.608 0.917 0.384 1.696 0.917 2.336 1.6 0.661 0.683 1.184 1.504 1.568 2.464 0.384 0.939 0.576 1.952 0.576 3.040 0 1.301-0.245 2.528-0.736 3.68-0.491 1.131-1.152 2.123-1.984 2.976s-1.813 1.525-2.944 2.016c-1.131 0.491-2.336 0.736-3.616 0.736-0.981 0-1.899-0.149-2.752-0.448-0.853-0.32-1.6-0.779-2.24-1.376l-1.792 8.288h-4.289zM141.992 10.816c-0.661 0-1.291 0.107-1.888 0.32s-1.141 0.523-1.632 0.928l-1.408 6.56c0.405 0.576 0.971 1.035 1.696 1.376 0.725 0.32 1.504 0.48 2.336 0.48 1.472 0 2.709-0.512 3.712-1.536 1.024-1.024 1.536-2.272 1.536-3.744 0-1.237-0.416-2.272-1.248-3.104-0.811-0.853-1.845-1.28-3.104-1.28zM167.18 22.272c-1.024 0.725-2.037 1.259-3.040 1.6-1.003 0.32-2.101 0.48-3.296 0.48-1.216 0-2.347-0.192-3.392-0.576-1.045-0.405-1.941-0.96-2.688-1.664s-1.333-1.547-1.76-2.528c-0.405-0.981-0.608-2.048-0.608-3.2 0-1.259 0.235-2.453 0.704-3.584 0.491-1.152 1.141-2.144 1.952-2.976 0.811-0.853 1.76-1.525 2.848-2.016 1.109-0.491 2.283-0.736 3.52-0.736 1.088 0 2.101 0.203 3.040 0.608s1.739 0.96 2.4 1.664c0.661 0.704 1.173 1.557 1.536 2.56 0.384 0.981 0.576 2.048 0.576 3.2 0 0.235-0.011 0.491-0.032 0.768-0.021 0.256-0.064 0.672-0.128 1.248h-12.16c0.192 1.067 0.693 1.931 1.504 2.592 0.832 0.661 1.835 0.992 3.008 0.992 0.704 0 1.365-0.107 1.984-0.32s1.163-0.512 1.632-0.896l2.4 2.784zM161.196 10.72c-0.96 0-1.824 0.309-2.592 0.928-0.768 0.597-1.323 1.387-1.664 2.368h8c-0.192-0.981-0.629-1.771-1.312-2.368-0.661-0.619-1.472-0.928-2.432-0.928z"></path>
<path d="M0 28h169.932v1.6h-169.932v-1.6z"></path>
</symbol>
<symbol id="FedEx-Logo" viewBox="0 0 102 32">
<path fill="#555" style="fill: var(--color1, #555)" d="M76.148 30.439l8.54-9.456-8.54-9.458h9.010l4.23 4.594 4.073-4.594h8.696l-8.499 9.419 8.616 9.495h-9.047l-4.191-4.632-4.152 4.632h-8.735z"></path>
<path fill="#555" style="fill: var(--color1, #555)" d="M76.148 7.285h-9.672v4.24h9.672v6.39h-9.672v5.865h9.672v6.659h-16.781v-29.794h16.781v6.641z"></path>
<path fill="#555" style="fill: var(--color1, #555)" d="M52.289 0.644v12.193h-0.078c-1.567-1.775-3.525-2.392-5.797-2.392-4.654 0-8.16 3.118-9.39 7.24-1.403-4.542-5.022-7.325-10.389-7.325-4.358 0-7.8 1.928-9.596 5.070v-3.905h-9.008v-4.239h9.831v-6.642h-17.861v29.795h8.030v-12.525h8.004c-0.239 0.92-0.366 1.905-0.366 2.945 0 6.215 4.818 10.576 10.966 10.576 5.17 0 8.578-2.392 10.38-6.754h-6.882c-0.931 1.31-1.637 1.699-3.498 1.699-2.158 0-4.019-1.855-4.019-4.055h14.013c0.608 4.937 4.51 9.194 9.864 9.194 2.31 0 4.425-1.12 5.718-3.010h0.078v1.929h7.079v-29.794h-7.079zM22.84 18.003c0.446-1.892 1.936-3.129 3.795-3.129 2.047 0 3.46 1.199 3.832 3.129 0.157 0-7.627 0-7.627 0zM47.993 25.902c-2.609 0-4.231-2.396-4.231-4.898 0-2.674 1.41-5.246 4.231-5.246 2.925 0 4.090 2.572 4.090 5.246-0 2.536-1.235 4.898-4.090 4.898z"></path>
</symbol>
<symbol id="arrow" viewBox="0 0 32 32">
<path d="M21.563 14.667l-7.152-7.152 1.885-1.885 10.371 10.371-10.371 10.371-1.885-1.885 7.152-7.152h-16.229v-2.667h16.229z"></path>
</symbol>
<symbol id="icon-Search" viewBox="0 0 32 32">
<path fill="none" stroke="#fff" style="stroke: var(--color1, #fff)" stroke-linejoin="round" stroke-linecap="round" stroke-miterlimit="4" stroke-width="3" d="M27.674 15.689c0 6.619-5.366 11.985-11.985 11.985s-11.985-5.366-11.985-11.985c0-6.619 5.366-11.985 11.985-11.985s11.985 5.366 11.985 11.985z"></path>
<path fill="none" stroke="#fff" style="stroke: var(--color1, #fff)" stroke-linejoin="round" stroke-linecap="round" stroke-miterlimit="4" stroke-width="3" d="M24.024 24.647l4.699 4.686"></path>
</symbol>
<symbol id="Arrow-Left-Hero" viewBox="0 0 32 32">
<path stroke-linejoin="round" stroke-linecap="round" stroke-miterlimit="4" stroke-width="1.6" d="M20.667 25.333l-9.333-9.333 9.333-9.333"></path>
</symbol>
<symbol id="Arrow-Right-Hero" viewBox="0 0 32 32">
<path stroke-linejoin="round" stroke-linecap="round" stroke-miterlimit="4" stroke-width="1.6" d="M11.333 6.667l9.333 9.333-9.333 9.333"></path>
</symbol>
</defs>
</svg>
